<mxfile host="app.diagrams.net" modified="2024-05-21T15:12:48.435Z" agent="Mozilla/5.0 (Windows NT 10.0; Win64; x64) AppleWebKit/537.36 (KHTML, like Gecko) Chrome/124.0.0.0 Safari/537.36" etag="7C7FCOvYy69qg4XMXj8C" version="24.4.4" type="device">
  <diagram name="Seite-1" id="r8jKmz9HBa1jjOI11OLF">
    <mxGraphModel dx="1430" dy="786" grid="1" gridSize="10" guides="1" tooltips="1" connect="1" arrows="1" fold="1" page="1" pageScale="1" pageWidth="827" pageHeight="1169" math="0" shadow="0">
      <root>
        <mxCell id="0" />
        <mxCell id="1" parent="0" />
        <mxCell id="lqlPHTW0hqAGxUWeI7kz-1" value="Unternehmer" style="shape=umlActor;verticalLabelPosition=bottom;verticalAlign=top;html=1;" parent="1" vertex="1">
          <mxGeometry x="520" y="260" width="30" height="60" as="geometry" />
        </mxCell>
        <mxCell id="lqlPHTW0hqAGxUWeI7kz-2" value="Studierende" style="shape=umlActor;verticalLabelPosition=bottom;verticalAlign=top;html=1;" parent="1" vertex="1">
          <mxGeometry x="30" y="260" width="30" height="60" as="geometry" />
        </mxCell>
        <mxCell id="lqlPHTW0hqAGxUWeI7kz-5" value="" style="rounded=0;whiteSpace=wrap;html=1;" parent="1" vertex="1">
          <mxGeometry x="140" y="120" width="280" height="680" as="geometry" />
        </mxCell>
        <mxCell id="lqlPHTW0hqAGxUWeI7kz-3" value="Als Benutzer registrieren" style="ellipse;whiteSpace=wrap;html=1;" parent="1" vertex="1">
          <mxGeometry x="200" y="130" width="140" height="70" as="geometry" />
        </mxCell>
        <mxCell id="lqlPHTW0hqAGxUWeI7kz-6" value="" style="endArrow=none;html=1;rounded=0;entryX=0;entryY=1;entryDx=0;entryDy=0;" parent="1" source="lqlPHTW0hqAGxUWeI7kz-2" target="lqlPHTW0hqAGxUWeI7kz-3" edge="1">
          <mxGeometry width="50" height="50" relative="1" as="geometry">
            <mxPoint x="320" y="270" as="sourcePoint" />
            <mxPoint x="370" y="220" as="targetPoint" />
          </mxGeometry>
        </mxCell>
        <mxCell id="lqlPHTW0hqAGxUWeI7kz-7" value="" style="endArrow=none;html=1;rounded=0;entryX=1;entryY=1;entryDx=0;entryDy=0;fillColor=#ffe6cc;strokeColor=#D79B00;" parent="1" source="lqlPHTW0hqAGxUWeI7kz-1" target="lqlPHTW0hqAGxUWeI7kz-3" edge="1">
          <mxGeometry width="50" height="50" relative="1" as="geometry">
            <mxPoint x="320" y="270" as="sourcePoint" />
            <mxPoint x="370" y="220" as="targetPoint" />
          </mxGeometry>
        </mxCell>
        <mxCell id="lqlPHTW0hqAGxUWeI7kz-8" value="HReg" style="rounded=0;whiteSpace=wrap;html=1;" parent="1" vertex="1">
          <mxGeometry x="450" y="20" width="120" height="60" as="geometry" />
        </mxCell>
        <mxCell id="lqlPHTW0hqAGxUWeI7kz-9" value="" style="endArrow=none;html=1;rounded=0;exitX=1;exitY=0;exitDx=0;exitDy=0;entryX=0;entryY=0.5;entryDx=0;entryDy=0;fillColor=#ffe6cc;strokeColor=#d79b00;" parent="1" source="lqlPHTW0hqAGxUWeI7kz-3" target="lqlPHTW0hqAGxUWeI7kz-8" edge="1">
          <mxGeometry width="50" height="50" relative="1" as="geometry">
            <mxPoint x="460" y="270" as="sourcePoint" />
            <mxPoint x="510" y="220" as="targetPoint" />
          </mxGeometry>
        </mxCell>
        <mxCell id="lqlPHTW0hqAGxUWeI7kz-10" value="Einloggen Ã¼ber Eingabemaske" style="ellipse;whiteSpace=wrap;html=1;" parent="1" vertex="1">
          <mxGeometry x="200" y="210" width="140" height="70" as="geometry" />
        </mxCell>
        <mxCell id="lqlPHTW0hqAGxUWeI7kz-11" value="" style="endArrow=none;html=1;rounded=0;entryX=1;entryY=0.5;entryDx=0;entryDy=0;" parent="1" source="lqlPHTW0hqAGxUWeI7kz-1" target="lqlPHTW0hqAGxUWeI7kz-10" edge="1">
          <mxGeometry width="50" height="50" relative="1" as="geometry">
            <mxPoint x="310" y="340" as="sourcePoint" />
            <mxPoint x="360" y="290" as="targetPoint" />
          </mxGeometry>
        </mxCell>
        <mxCell id="lqlPHTW0hqAGxUWeI7kz-12" value="" style="endArrow=none;html=1;rounded=0;exitX=0;exitY=0.5;exitDx=0;exitDy=0;" parent="1" source="lqlPHTW0hqAGxUWeI7kz-10" target="lqlPHTW0hqAGxUWeI7kz-2" edge="1">
          <mxGeometry width="50" height="50" relative="1" as="geometry">
            <mxPoint x="353.71" y="340" as="sourcePoint" />
            <mxPoint x="99.99999999999997" y="183.17999999999995" as="targetPoint" />
          </mxGeometry>
        </mxCell>
        <mxCell id="lqlPHTW0hqAGxUWeI7kz-13" value="Programmiersprache verwalten" style="ellipse;whiteSpace=wrap;html=1;" parent="1" vertex="1">
          <mxGeometry x="200" y="290" width="140" height="70" as="geometry" />
        </mxCell>
        <mxCell id="lqlPHTW0hqAGxUWeI7kz-14" value="" style="endArrow=none;html=1;rounded=0;exitX=0;exitY=0.5;exitDx=0;exitDy=0;" parent="1" source="lqlPHTW0hqAGxUWeI7kz-13" target="lqlPHTW0hqAGxUWeI7kz-2" edge="1">
          <mxGeometry width="50" height="50" relative="1" as="geometry">
            <mxPoint x="340" y="420" as="sourcePoint" />
            <mxPoint x="390" y="370" as="targetPoint" />
          </mxGeometry>
        </mxCell>
        <mxCell id="lqlPHTW0hqAGxUWeI7kz-15" value="Programmiersprachen abfragen" style="ellipse;whiteSpace=wrap;html=1;" parent="1" vertex="1">
          <mxGeometry x="140" y="370" width="140" height="70" as="geometry" />
        </mxCell>
        <mxCell id="lqlPHTW0hqAGxUWeI7kz-16" value="Programmiersprache aktualisieren" style="ellipse;whiteSpace=wrap;html=1;" parent="1" vertex="1">
          <mxGeometry x="280" y="370" width="140" height="70" as="geometry" />
        </mxCell>
        <mxCell id="lqlPHTW0hqAGxUWeI7kz-17" value="" style="endArrow=classic;html=1;rounded=0;entryX=0.5;entryY=0;entryDx=0;entryDy=0;exitX=0;exitY=1;exitDx=0;exitDy=0;" parent="1" source="lqlPHTW0hqAGxUWeI7kz-13" target="lqlPHTW0hqAGxUWeI7kz-15" edge="1">
          <mxGeometry width="50" height="50" relative="1" as="geometry">
            <mxPoint x="320" y="430" as="sourcePoint" />
            <mxPoint x="370" y="380" as="targetPoint" />
          </mxGeometry>
        </mxCell>
        <mxCell id="lqlPHTW0hqAGxUWeI7kz-18" value="" style="endArrow=classic;html=1;rounded=0;entryX=0.5;entryY=1;entryDx=0;entryDy=0;exitX=0.5;exitY=1;exitDx=0;exitDy=0;" parent="1" source="lqlPHTW0hqAGxUWeI7kz-15" target="lqlPHTW0hqAGxUWeI7kz-16" edge="1">
          <mxGeometry width="50" height="50" relative="1" as="geometry">
            <mxPoint x="610" y="520" as="sourcePoint" />
            <mxPoint x="370" y="380" as="targetPoint" />
            <Array as="points">
              <mxPoint x="210" y="450" />
              <mxPoint x="350" y="450" />
            </Array>
          </mxGeometry>
        </mxCell>
        <mxCell id="lqlPHTW0hqAGxUWeI7kz-19" value="Projektausschreibung aufgeben" style="ellipse;whiteSpace=wrap;html=1;" parent="1" vertex="1">
          <mxGeometry x="210" y="460" width="140" height="70" as="geometry" />
        </mxCell>
        <mxCell id="lqlPHTW0hqAGxUWeI7kz-20" value="" style="endArrow=none;html=1;rounded=0;exitX=1;exitY=0.5;exitDx=0;exitDy=0;" parent="1" source="lqlPHTW0hqAGxUWeI7kz-19" target="lqlPHTW0hqAGxUWeI7kz-1" edge="1">
          <mxGeometry width="50" height="50" relative="1" as="geometry">
            <mxPoint x="340" y="420" as="sourcePoint" />
            <mxPoint x="390" y="370" as="targetPoint" />
            <Array as="points">
              <mxPoint x="440" y="450" />
              <mxPoint x="440" y="300" />
            </Array>
          </mxGeometry>
        </mxCell>
        <mxCell id="lqlPHTW0hqAGxUWeI7kz-21" value="Suchanfragen auf Basis von Programmiersprachen" style="ellipse;whiteSpace=wrap;html=1;" parent="1" vertex="1">
          <mxGeometry x="270" y="540" width="150" height="70" as="geometry" />
        </mxCell>
        <mxCell id="lqlPHTW0hqAGxUWeI7kz-22" value="" style="endArrow=none;html=1;rounded=0;exitX=1;exitY=0;exitDx=0;exitDy=0;" parent="1" source="lqlPHTW0hqAGxUWeI7kz-21" target="lqlPHTW0hqAGxUWeI7kz-1" edge="1">
          <mxGeometry width="50" height="50" relative="1" as="geometry">
            <mxPoint x="340" y="510" as="sourcePoint" />
            <mxPoint x="390" y="460" as="targetPoint" />
            <Array as="points">
              <mxPoint x="460" y="490" />
              <mxPoint x="460" y="310" />
            </Array>
          </mxGeometry>
        </mxCell>
        <mxCell id="lqlPHTW0hqAGxUWeI7kz-23" value="Projekt planen" style="ellipse;whiteSpace=wrap;html=1;" parent="1" vertex="1">
          <mxGeometry x="140" y="540" width="130" height="70" as="geometry" />
        </mxCell>
        <mxCell id="lqlPHTW0hqAGxUWeI7kz-24" value="" style="endArrow=classic;html=1;rounded=0;entryX=0.5;entryY=1;entryDx=0;entryDy=0;exitX=0.5;exitY=1;exitDx=0;exitDy=0;" parent="1" edge="1">
          <mxGeometry width="50" height="50" relative="1" as="geometry">
            <mxPoint x="340" y="610" as="sourcePoint" />
            <mxPoint x="200" y="610" as="targetPoint" />
            <Array as="points">
              <mxPoint x="340" y="620" />
              <mxPoint x="200" y="620" />
            </Array>
          </mxGeometry>
        </mxCell>
        <mxCell id="w0_Avk-OM1j29h8ToENQ-1" value="" style="endArrow=classic;html=1;rounded=0;fillColor=#ffe6cc;strokeColor=#d79b00;exitX=0;exitY=0;exitDx=0;exitDy=0;entryX=0;entryY=1;entryDx=0;entryDy=0;" edge="1" parent="1" source="lqlPHTW0hqAGxUWeI7kz-21" target="lqlPHTW0hqAGxUWeI7kz-15">
          <mxGeometry width="50" height="50" relative="1" as="geometry">
            <mxPoint x="310" y="530" as="sourcePoint" />
            <mxPoint x="360" y="480" as="targetPoint" />
            <Array as="points">
              <mxPoint x="160" y="510" />
            </Array>
          </mxGeometry>
        </mxCell>
        <mxCell id="w0_Avk-OM1j29h8ToENQ-2" value="" style="endArrow=classic;html=1;rounded=0;fillColor=#ffe6cc;strokeColor=#d79b00;exitX=1;exitY=0;exitDx=0;exitDy=0;" edge="1" parent="1" source="lqlPHTW0hqAGxUWeI7kz-15" target="lqlPHTW0hqAGxUWeI7kz-1">
          <mxGeometry width="50" height="50" relative="1" as="geometry">
            <mxPoint x="310" y="470" as="sourcePoint" />
            <mxPoint x="360" y="420" as="targetPoint" />
            <Array as="points">
              <mxPoint x="400" y="350" />
            </Array>
          </mxGeometry>
        </mxCell>
        <mxCell id="w0_Avk-OM1j29h8ToENQ-3" value="Bewerbung verwalten" style="ellipse;whiteSpace=wrap;html=1;" vertex="1" parent="1">
          <mxGeometry x="280" y="640" width="140" height="70" as="geometry" />
        </mxCell>
        <mxCell id="w0_Avk-OM1j29h8ToENQ-4" value="Bewerben" style="ellipse;whiteSpace=wrap;html=1;" vertex="1" parent="1">
          <mxGeometry x="140" y="640" width="140" height="70" as="geometry" />
        </mxCell>
        <mxCell id="w0_Avk-OM1j29h8ToENQ-5" value="" style="endArrow=none;html=1;rounded=0;entryX=0;entryY=0;entryDx=0;entryDy=0;" edge="1" parent="1" target="w0_Avk-OM1j29h8ToENQ-4">
          <mxGeometry width="50" height="50" relative="1" as="geometry">
            <mxPoint x="60" y="300" as="sourcePoint" />
            <mxPoint x="360" y="540" as="targetPoint" />
            <Array as="points">
              <mxPoint x="110" y="330" />
              <mxPoint x="110" y="620" />
            </Array>
          </mxGeometry>
        </mxCell>
        <mxCell id="w0_Avk-OM1j29h8ToENQ-6" value="" style="endArrow=classic;html=1;rounded=0;exitX=1;exitY=0;exitDx=0;exitDy=0;" edge="1" parent="1" source="w0_Avk-OM1j29h8ToENQ-4" target="lqlPHTW0hqAGxUWeI7kz-1">
          <mxGeometry width="50" height="50" relative="1" as="geometry">
            <mxPoint x="310" y="590" as="sourcePoint" />
            <mxPoint x="360" y="540" as="targetPoint" />
            <Array as="points">
              <mxPoint x="290" y="630" />
              <mxPoint x="480" y="630" />
              <mxPoint x="480" y="340" />
            </Array>
          </mxGeometry>
        </mxCell>
        <mxCell id="w0_Avk-OM1j29h8ToENQ-7" value="" style="endArrow=none;html=1;rounded=0;exitX=1;exitY=0;exitDx=0;exitDy=0;" edge="1" parent="1" source="w0_Avk-OM1j29h8ToENQ-3" target="lqlPHTW0hqAGxUWeI7kz-1">
          <mxGeometry width="50" height="50" relative="1" as="geometry">
            <mxPoint x="310" y="590" as="sourcePoint" />
            <mxPoint x="500" y="640" as="targetPoint" />
            <Array as="points">
              <mxPoint x="500" y="650" />
            </Array>
          </mxGeometry>
        </mxCell>
        <mxCell id="w0_Avk-OM1j29h8ToENQ-8" value="Bewerben" style="ellipse;whiteSpace=wrap;html=1;" vertex="1" parent="1">
          <mxGeometry x="280" y="720" width="140" height="70" as="geometry" />
        </mxCell>
        <mxCell id="w0_Avk-OM1j29h8ToENQ-9" value="Projektausschreibung suchen" style="ellipse;whiteSpace=wrap;html=1;" vertex="1" parent="1">
          <mxGeometry x="140" y="720" width="140" height="70" as="geometry" />
        </mxCell>
        <mxCell id="w0_Avk-OM1j29h8ToENQ-10" value="" style="endArrow=none;html=1;rounded=0;exitX=0;exitY=0;exitDx=0;exitDy=0;" edge="1" parent="1" source="w0_Avk-OM1j29h8ToENQ-9" target="lqlPHTW0hqAGxUWeI7kz-2">
          <mxGeometry width="50" height="50" relative="1" as="geometry">
            <mxPoint x="390" y="550" as="sourcePoint" />
            <mxPoint x="440" y="500" as="targetPoint" />
            <Array as="points">
              <mxPoint x="90" y="720" />
              <mxPoint x="90" y="340" />
            </Array>
          </mxGeometry>
        </mxCell>
        <mxCell id="w0_Avk-OM1j29h8ToENQ-11" value="" style="endArrow=none;html=1;rounded=0;entryX=0.5;entryY=1;entryDx=0;entryDy=0;exitX=0.5;exitY=1;exitDx=0;exitDy=0;" edge="1" parent="1" source="w0_Avk-OM1j29h8ToENQ-8" target="w0_Avk-OM1j29h8ToENQ-9">
          <mxGeometry width="50" height="50" relative="1" as="geometry">
            <mxPoint x="390" y="550" as="sourcePoint" />
            <mxPoint x="440" y="500" as="targetPoint" />
          </mxGeometry>
        </mxCell>
      </root>
    </mxGraphModel>
  </diagram>
</mxfile>
